<svg width="350" height="350" viewBox="0 0 350 350" fill="none" xmlns="http://www.w3.org/2000/svg">
<g clip-path="url(#clip0_474_2)">
<path d="M159.809 145.93H43.4692V231.75H159.809V145.93Z" fill="#F5F9FF"/>
<path d="M159.809 145.93H43.4692V156.634H159.809V145.93Z" fill="#D0DBF7"/>
<path d="M52.8088 151.527C52.8088 152.881 51.7119 153.977 50.3595 153.977C49.0064 153.977 47.9102 152.88 47.9102 151.527C47.9102 150.175 49.0071 149.078 50.3595 149.078C51.7119 149.078 52.8088 150.175 52.8088 151.527Z" fill="#F2F2F2"/>
<path d="M61.0568 151.527C61.0568 152.881 59.9599 153.977 58.6075 153.977C57.2551 153.977 56.1582 152.88 56.1582 151.527C56.1582 150.175 57.2551 149.078 58.6075 149.078C59.9599 149.078 61.0568 150.175 61.0568 151.527Z" fill="#F2F2F2"/>
<path d="M69.3049 151.527C69.3049 152.881 68.208 153.977 66.8556 153.977C65.5025 153.977 64.4062 152.88 64.4062 151.527C64.4062 150.175 65.5032 149.078 66.8556 149.078C68.2087 149.078 69.3049 150.175 69.3049 151.527Z" fill="#F2F2F2"/>
<path d="M121.501 179.977L115.652 174.129L101.639 188.141L87.6261 174.129L81.7769 179.977L95.7902 193.99L81.7769 208.002L87.6261 213.851L101.639 199.838L115.652 213.851L121.501 208.002L107.488 193.99L121.501 179.977Z" fill="#E3EBFC"/>
<path d="M302.625 91.8008H186.286V177.621H302.625V91.8008Z" fill="#F5F9FF"/>
<path d="M302.625 91.8008H186.286V102.505H302.625V91.8008Z" fill="#D0DBF7"/>
<path d="M195.626 97.3985C195.626 98.7516 194.529 99.8478 193.176 99.8478C191.823 99.8478 190.727 98.7509 190.727 97.3985C190.727 96.0461 191.824 94.9492 193.176 94.9492C194.529 94.9492 195.626 96.0454 195.626 97.3985Z" fill="#F2F2F2"/>
<path d="M203.874 97.3985C203.874 98.7516 202.777 99.8478 201.424 99.8478C200.071 99.8478 198.975 98.7509 198.975 97.3985C198.975 96.0461 200.072 94.9492 201.424 94.9492C202.777 94.9492 203.874 96.0454 203.874 97.3985Z" fill="#F2F2F2"/>
<path d="M212.122 97.3985C212.122 98.7516 211.025 99.8478 209.672 99.8478C208.319 99.8478 207.223 98.7509 207.223 97.3985C207.223 96.0461 208.32 94.9492 209.672 94.9492C211.025 94.9492 212.122 96.0454 212.122 97.3985Z" fill="#F2F2F2"/>
<path d="M264.317 125.849L258.469 120L244.456 134.013L230.442 120L224.594 125.849L238.606 139.861L224.594 153.874L230.442 159.722L244.456 145.71L258.469 159.722L264.317 153.874L250.305 139.861L264.317 125.849Z" fill="#E3EBFC"/>
<path d="M174.301 301.167C252.844 301.167 316.516 295.665 316.516 288.878C316.516 282.092 252.844 276.59 174.301 276.59C95.7575 276.59 32.0854 282.092 32.0854 288.878C32.0854 295.665 95.7575 301.167 174.301 301.167Z" fill="#EDF0FC"/>
<path d="M139.617 93.2267C138.534 90.9566 138.591 88.7572 139.788 86.6285L140.37 85.6142C140.939 84.6874 141.302 83.9748 141.46 83.4757C141.618 82.9773 141.576 82.4712 141.332 81.9595C140.716 80.6687 139.327 80.5385 137.169 81.5682C136.168 82.0456 135.197 82.6735 134.256 83.4498C133.316 84.2261 132.484 85.0878 131.76 86.0335L129.308 80.8934C130.909 78.9824 132.978 77.4214 135.515 76.2111C138.252 74.9049 140.696 74.4429 142.844 74.8251C144.993 75.2073 146.551 76.4099 147.517 78.435C148.059 79.5697 148.241 80.6099 148.063 81.5549C147.886 82.5006 147.391 83.699 146.582 85.1501C146.046 86.1441 145.665 86.8924 145.441 87.3957C145.217 87.899 145.105 88.3953 145.107 88.886C145.109 89.3774 145.248 89.9122 145.524 90.4897L145.827 91.1246L139.952 93.9274L139.617 93.2267ZM144.115 100.894C143.244 100.586 142.601 99.9978 142.187 99.1305C141.763 98.2408 141.707 97.3658 142.021 96.5055C142.334 95.6459 142.937 95.0033 143.826 94.5791C144.694 94.1647 145.575 94.1066 146.468 94.4041C147.361 94.703 148.015 95.2847 148.429 96.1527C148.843 97.0207 148.885 97.8957 148.554 98.777C148.223 99.6583 147.624 100.306 146.756 100.72C145.867 101.144 144.986 101.203 144.115 100.894Z" fill="#E2E6FF"/>
<path d="M168.139 73.62C169.602 70.127 172.129 67.9857 175.72 67.1947L177.443 66.83C179.054 66.5395 180.219 66.2322 180.938 65.9095C181.656 65.5868 182.181 65.0317 182.512 64.2442C183.343 62.2583 182.097 60.5692 178.776 59.1776C177.236 58.5322 175.557 58.0709 173.741 57.7937C171.927 57.5158 170.124 57.4465 168.337 57.5816L171.65 49.6723C175.402 49.5533 179.23 50.3121 183.133 51.9473C187.345 53.7113 190.315 55.9919 192.041 58.787C193.768 61.5835 193.978 64.5389 192.674 67.6546C191.942 69.4011 190.957 70.6485 189.718 71.3975C188.478 72.1458 186.637 72.7933 184.195 73.34C182.54 73.7341 181.318 74.0575 180.528 74.3102C179.738 74.5636 179.068 74.936 178.52 75.4309C177.969 75.9258 177.509 76.6181 177.136 77.5071L176.728 78.4836L167.688 74.6973L168.139 73.62ZM164.041 86.3621C163.512 85.0748 163.529 83.763 164.088 82.4274C164.662 81.0582 165.588 80.1181 166.87 79.6078C168.149 79.0968 169.475 79.129 170.844 79.7023C172.18 80.2616 173.128 81.1926 173.69 82.4939C174.25 83.7959 174.252 85.1147 173.693 86.4496C173.134 87.7845 172.192 88.7092 170.871 89.2223C169.55 89.7347 168.221 89.7116 166.886 89.1523C165.516 88.5797 164.566 87.6487 164.041 86.3621Z" fill="#E2E6FF"/>
<path d="M314.796 199.589V195.57H312.124V199.589H308.105V202.261H312.124V206.28H314.796V202.261H318.815V199.589H314.796Z" fill="#CAD2F9"/>
<path d="M289.561 70.9495V64.8203H285.486V70.9495H279.357V75.0242H285.486V81.1534H289.561V75.0242H295.691V70.9495H289.561Z" fill="#CAD2F9"/>
<path d="M278.454 189.587V186.66H276.508V189.587H273.581V191.533H276.508V194.46H278.454V191.533H281.38V189.587H278.454Z" fill="#CAD2F9"/>
<path d="M111.555 87.7861V84.8594H109.609V87.7861H106.682V89.7321H109.609V92.6588H111.555V89.7321H114.482V87.7861H111.555Z" fill="#CAD2F9"/>
<path d="M88.9933 68.4296V64.4102H86.3214V68.4296H82.3027V71.1008H86.3214V75.1195H88.9933V71.1008H93.0127V68.4296H88.9933Z" fill="#CAD2F9"/>
<path d="M220.964 76.6336C220.964 77.4778 220.28 78.1617 219.436 78.1617C218.592 78.1617 217.908 77.4771 217.908 76.6336C217.908 75.7894 218.592 75.1055 219.436 75.1055C220.28 75.1055 220.964 75.7894 220.964 76.6336Z" fill="#EEF1FF"/>
<path d="M227.223 50.3601C227.223 51.2043 226.538 51.8882 225.695 51.8882C224.85 51.8882 224.167 51.2036 224.167 50.3601C224.167 49.5159 224.85 48.832 225.695 48.832C226.538 48.832 227.223 49.5166 227.223 50.3601Z" fill="#EEF1FF"/>
<path d="M257.078 65.8149C258.677 65.8149 259.972 64.5193 259.972 62.9211C259.972 61.3229 258.677 60.0273 257.078 60.0273C255.48 60.0273 254.185 61.3229 254.185 62.9211C254.185 64.5193 255.48 65.8149 257.078 65.8149Z" fill="#EEF1FF"/>
<path d="M318.044 171.626C318.044 172.47 317.361 173.154 316.516 173.154C315.672 173.154 314.988 172.469 314.988 171.626C314.988 170.782 315.672 170.098 316.516 170.098C317.361 170.097 318.044 170.782 318.044 171.626Z" fill="#EEF1FF"/>
<path d="M316.516 219.341C316.516 220.185 315.832 220.869 314.988 220.869C314.144 220.869 313.46 220.184 313.46 219.341C313.46 218.496 314.144 217.812 314.988 217.812C315.832 217.812 316.516 218.496 316.516 219.341Z" fill="#EEF1FF"/>
<path d="M83.8306 135.887C83.8306 136.732 83.146 137.416 82.3025 137.416C81.4583 137.416 80.7744 136.732 80.7744 135.887C80.7744 135.043 81.4583 134.359 82.3025 134.359C83.1467 134.359 83.8306 135.043 83.8306 135.887Z" fill="#EEF1FF"/>
<path d="M57.2322 75.4009C58.8304 75.4009 60.126 74.1053 60.126 72.5071C60.126 70.9089 58.8304 69.6133 57.2322 69.6133C55.634 69.6133 54.3384 70.9089 54.3384 72.5071C54.3384 74.1053 55.634 75.4009 57.2322 75.4009Z" fill="#EEF1FF"/>
<path d="M114.3 56.1804C114.3 57.0246 113.616 57.7085 112.772 57.7085C111.928 57.7085 111.244 57.0246 111.244 56.1804C111.244 55.3362 111.929 54.6523 112.772 54.6523C113.616 54.6523 114.3 55.3362 114.3 56.1804Z" fill="#EEF1FF"/>
<path d="M33.6133 147.829C33.6133 148.673 32.9294 149.357 32.0852 149.357C31.241 149.357 30.5571 148.672 30.5571 147.829C30.5571 146.985 31.2417 146.301 32.0852 146.301C32.9287 146.301 33.6133 146.985 33.6133 147.829Z" fill="#EEF1FF"/>
<path d="M33.6133 229.27C33.6133 230.114 32.9294 230.798 32.0852 230.798C31.241 230.798 30.5571 230.114 30.5571 229.27C30.5571 228.426 31.2417 227.742 32.0852 227.742C32.9287 227.741 33.6133 228.426 33.6133 229.27Z" fill="#EEF1FF"/>
<path d="M256.433 275.289C256.433 275.289 231.108 224.659 299.798 191.055C299.798 191.055 305.063 263.202 256.433 275.289Z" fill="#6E7FDD"/>
<path d="M259.35 268.841C259.332 261.603 260.845 254.412 262.929 247.475C263.197 246.608 263.435 245.729 263.728 244.871L264.656 242.311L265.59 239.75L266.644 237.238C268.002 233.864 269.706 230.653 271.316 227.395L274.054 222.686C274.937 221.098 275.939 219.584 276.956 218.082C277.984 216.586 278.957 215.054 280.028 213.591C281.12 212.143 282.229 210.709 283.345 209.282L285.017 207.141L286.813 205.103L290.43 201.059C291.023 200.377 291.683 199.756 292.33 199.124L294.276 197.238C295.577 195.985 296.89 194.747 298.211 193.523C297.077 194.932 295.935 196.326 294.781 197.705L293.045 199.767C292.465 200.451 291.873 201.125 291.35 201.858L288.076 206.126L286.427 208.244L284.891 210.447C283.874 211.919 282.851 213.384 281.81 214.835C280.803 216.309 279.893 217.85 278.931 219.353C276.933 222.315 275.291 225.489 273.498 228.571C270.15 234.868 267.199 241.372 264.759 248.081C262.367 254.803 260.358 261.699 259.35 268.841Z" fill="#B3C9F9"/>
<path opacity="0.1" d="M297.227 190.556C296.265 207.965 290.3 254.242 254.277 264.723C255.576 269.976 257.153 273.129 257.153 273.129C305.784 261.042 300.518 188.895 300.518 188.895C299.395 189.443 298.301 189.998 297.227 190.556Z" fill="#0046A0"/>
<path d="M250.236 291.584C250.236 291.584 253.839 276.167 268.913 257.484C285.428 237.015 306.962 229.651 315.903 239.489C324.58 249.038 317.208 262.231 294.856 268.972C272.504 275.714 259.867 278.618 250.236 291.584Z" fill="#FFCF74"/>
<path d="M308.825 244.848C303.711 246.871 298.757 249.217 293.891 251.701C289.041 254.215 284.305 256.938 279.787 259.98C275.254 262.995 270.939 266.333 266.936 270.022C262.948 273.726 259.294 277.799 256.135 282.31C257.409 279.87 258.914 277.547 260.542 275.309C262.222 273.114 264.005 270.982 265.963 269.02C269.842 265.055 274.202 261.583 278.793 258.492C281.106 256.972 283.464 255.521 285.88 254.174C288.309 252.854 290.765 251.584 293.283 250.45C298.301 248.153 303.49 246.215 308.825 244.848Z" fill="#F9AB43"/>
<path opacity="0.1" d="M315.903 239.49C315.418 238.957 314.89 238.483 314.334 238.051C307.084 255.81 285.898 268.672 260.872 268.698C252.491 281.955 250.236 291.585 250.236 291.585C259.867 278.619 272.504 275.715 294.856 268.973C317.208 262.232 324.581 249.039 315.903 239.49Z" fill="#0046A0"/>
<path d="M120.511 282.925C120.511 282.925 68.4878 305.249 38.9541 234.713C38.9541 234.713 111.287 233.672 120.511 282.925Z" fill="#6E7FDD"/>
<path d="M116.357 280.481C109.131 280.075 102.041 278.146 95.2371 275.66C94.3873 275.342 93.5242 275.053 92.6835 274.711L90.1824 273.633L87.6813 272.551L85.2355 271.352C81.9455 269.799 78.8396 267.911 75.6819 266.113L71.141 263.105C69.6073 262.131 68.1548 261.042 66.7135 259.939C65.2806 258.826 63.8078 257.764 62.4106 256.609C61.0295 255.435 59.6624 254.243 58.303 253.046L56.2639 251.253L54.334 249.341L50.5085 245.493C49.8624 244.862 49.2807 244.168 48.6878 243.484L46.9182 241.431C45.7429 240.059 44.5851 238.675 43.4399 237.285C44.7797 238.5 46.1055 239.721 47.4138 240.954L49.3703 242.807C50.0199 243.426 50.6576 244.056 51.359 244.62L55.4295 248.138L57.4476 249.908L59.556 251.57C60.9658 252.672 62.3686 253.779 63.7574 254.903C65.1707 255.995 66.6554 256.992 68.0988 258.041C70.9394 260.208 74.0117 262.033 76.9839 264.003C83.0746 267.713 89.3949 271.039 95.9504 273.867C102.52 276.648 109.288 279.057 116.357 280.481Z" fill="#B3C9F9"/>
<path opacity="0.1" d="M40.4211 238.094C57.744 240.072 103.594 248.731 111.951 285.305C117.271 284.315 120.512 282.925 120.512 282.925C111.286 233.672 38.9546 234.713 38.9546 234.713C39.4369 235.866 39.9262 236.99 40.4211 238.094Z" fill="#0046A0"/>
<path d="M99.1161 263.92C99.1161 263.92 98.8627 248.09 88.0925 226.636C76.2919 203.132 56.8074 191.369 45.9847 199.088C35.4798 206.581 39.8884 221.037 60.3032 232.364C80.7187 243.691 92.4521 249.208 99.1161 263.92Z" fill="#FFCF74"/>
<path d="M51.7651 205.828C56.334 208.889 60.6782 212.233 64.9062 215.692C69.1132 219.176 73.1641 222.842 76.935 226.771C80.7262 230.68 84.2353 234.857 87.3643 239.31C90.4765 243.775 93.1848 248.531 95.3156 253.608C94.5876 250.954 93.6104 248.364 92.4932 245.832C91.3158 243.332 90.0264 240.87 88.5284 238.538C85.5786 233.841 82.0534 229.524 78.2223 225.53C76.2833 223.554 74.2869 221.636 72.2121 219.807C70.1177 218.002 67.9869 216.241 65.7665 214.598C61.3488 211.29 56.6889 208.295 51.7651 205.828Z" fill="#F9AB43"/>
<path opacity="0.1" d="M45.9844 199.089C46.571 198.671 47.1877 198.321 47.8226 198.016C51.1434 216.908 69.1208 233.969 93.5725 239.3C98.9527 254.032 99.1158 263.921 99.1158 263.921C92.4518 249.209 80.7177 243.691 60.3029 232.365C39.8881 221.038 35.4802 206.582 45.9844 199.089Z" fill="#0046A0"/>
<path d="M243.214 279.247C242.648 282.992 238.885 286.057 234.852 286.057H115.506C111.472 286.057 107.668 282.998 107.051 279.26L87.2908 159.422C86.6741 155.684 89.4706 152.625 93.504 152.625H255.019C259.053 152.625 261.89 155.69 261.324 159.435L243.214 279.247Z" fill="#F9AB43"/>
<path d="M213.267 112.582H112.772V254.155H235.665V135.308L213.267 112.582Z" fill="#C2CEF2"/>
<path d="M213.267 112.582L235.829 135.144H213.267V112.582Z" fill="#7997F2"/>
<path d="M208.331 157.349L198.31 147.328L174.301 171.335L150.292 147.328L140.271 157.349L164.28 181.357L140.271 205.364L150.292 215.386L174.301 191.378L198.31 215.386L208.331 205.364L184.322 181.357L208.331 157.349Z" fill="#AFC2E8"/>
<path d="M185.963 193.744C182.794 193.748 179.437 191.274 178.504 188.246L173.9 173.314C172.966 170.286 169.609 167.809 166.441 167.809H84.5756C81.4067 167.809 79.2675 170.361 79.8212 173.481L99.8041 286.086C100.358 289.205 103.403 291.758 106.572 291.758H248.384C251.553 291.758 254.551 289.198 255.047 286.068L268.799 199.314C269.295 196.184 267.108 193.627 263.939 193.631L185.963 193.744Z" fill="#FFCF74"/>
<path d="M166.019 246.517C166.019 242.133 167.759 238.717 171.239 236.267L172.915 235.108C174.505 234.078 175.612 233.229 176.235 232.563C176.858 231.897 177.17 231.07 177.17 230.081C177.17 227.589 175.085 226.343 170.917 226.343C168.984 226.343 166.986 226.601 164.923 227.117C162.862 227.632 160.906 228.364 159.059 229.308V219.383C163.011 217.578 167.438 216.676 172.335 216.676C177.62 216.676 181.811 217.782 184.903 219.995C187.997 222.209 189.544 225.27 189.544 229.179C189.544 231.371 189.049 233.143 188.062 234.496C187.073 235.85 185.397 237.364 183.034 239.04C181.445 240.201 180.283 241.093 179.553 241.716C178.823 242.339 178.275 243.036 177.91 243.81C177.544 244.584 177.362 245.529 177.362 246.645V247.871H166.018V246.517H166.019ZM167.341 261.952C166.201 260.814 165.632 259.407 165.632 257.731C165.632 256.013 166.201 254.595 167.341 253.477C168.478 252.36 169.908 251.801 171.626 251.801C173.302 251.801 174.731 252.37 175.913 253.508C177.093 254.648 177.686 256.054 177.686 257.73C177.686 259.406 177.094 260.814 175.913 261.952C174.731 263.09 173.302 263.659 171.626 263.659C169.908 263.66 168.478 263.091 167.341 261.952Z" fill="white"/>
<path opacity="0.1" d="M263.939 193.629L255.07 193.642C255.266 195.683 255.37 197.744 255.37 199.823C255.37 246.328 205.597 284.027 144.2 284.027C127.753 284.027 112.142 281.319 98.0967 276.464L99.804 286.084C100.358 289.203 103.403 291.756 106.572 291.756H248.384C251.553 291.756 254.551 289.196 255.047 286.066L268.799 199.312C269.294 196.183 267.107 193.625 263.939 193.629Z" fill="#0046A0"/>
<g opacity="0.3">
<path d="M93.5802 184.521C94.0016 187.347 94.423 190.174 94.8451 193C95.8482 199.727 96.8513 206.452 97.8544 213.179C99.0759 221.37 100.297 229.561 101.519 237.751C102.567 244.784 103.616 251.815 104.665 258.847C105.013 261.184 105.361 263.52 105.71 265.856C105.874 266.953 105.967 268.091 106.205 269.176C106.215 269.222 106.219 269.27 106.226 269.317C106.369 270.28 107.584 270.81 108.44 270.574C109.472 270.291 109.842 269.325 109.698 268.36C109.276 265.533 108.855 262.706 108.433 259.88C107.43 253.153 106.427 246.428 105.423 239.702C104.202 231.511 102.98 223.319 101.759 215.129C100.71 208.097 99.6618 201.065 98.6132 194.033C98.2646 191.696 97.9167 189.36 97.5681 187.024C97.4043 185.927 97.3112 184.789 97.0732 183.704C97.0627 183.658 97.0592 183.61 97.0522 183.563C96.9087 182.6 95.6935 182.07 94.8374 182.306C93.807 182.589 93.436 183.555 93.5802 184.521Z" fill="white"/>
</g>
<path d="M291.207 122.176C280.141 122.176 271.17 131.146 271.17 142.212C271.17 147.157 272.966 151.681 275.935 155.176L275.098 165.492L284.671 161.152C286.72 161.859 288.918 162.249 291.207 162.249C302.272 162.249 311.243 153.278 311.243 142.213C311.243 131.147 302.273 122.176 291.207 122.176Z" fill="#EB725F"/>
<path d="M289.82 152.469C289.454 152.103 289.27 151.65 289.27 151.111C289.27 150.572 289.454 150.12 289.82 149.753C290.186 149.387 290.639 149.203 291.178 149.203C291.717 149.203 292.174 149.387 292.552 149.753C292.929 150.12 293.118 150.572 293.118 151.111C293.118 151.65 292.928 152.103 292.552 152.469C292.174 152.835 291.717 153.019 291.178 153.019C290.639 153.019 290.186 152.835 289.82 152.469ZM288.688 129.934H293.732L292.795 146.068H289.625L288.688 129.934Z" fill="#F2F2F2"/>
<path opacity="0.1" d="M280.231 152.83C278.056 152.83 275.934 152.639 273.886 152.278C274.484 153.306 275.17 154.276 275.936 155.177L275.099 165.493L284.672 161.153C286.721 161.86 288.918 162.25 291.207 162.25C302.273 162.25 311.243 153.279 311.243 142.214C311.243 139.532 310.712 136.975 309.757 134.637C305.744 145.19 294.045 152.83 280.231 152.83Z" fill="#0046A0"/>
<path d="M85.9244 116.756V97.7576C85.9244 95.4763 84.0575 93.6094 81.7762 93.6094H47.1472C44.8659 93.6094 42.999 95.4763 42.999 97.7576V121.699C42.999 123.98 44.8659 125.847 47.1472 125.847H78.1509H81.7755H95.9162L85.9244 116.756Z" fill="#F9AB43"/>
<path d="M58.6728 107.062C58.6728 108.884 57.6137 110.361 56.3082 110.361C55.002 110.361 53.9429 108.884 53.9429 107.062C53.9429 105.239 55.002 103.762 56.3082 103.762C57.6137 103.762 58.6728 105.239 58.6728 107.062Z" fill="white"/>
<path d="M74.3949 107.062C74.3949 108.884 73.3358 110.361 72.0296 110.361C70.7234 110.361 69.665 108.884 69.665 107.062C69.665 105.239 70.7241 103.762 72.0296 103.762C73.3365 103.762 74.3949 105.239 74.3949 107.062Z" fill="white"/>
<path d="M58.7491 116.29C59.5597 115.402 60.6881 114.704 61.8102 114.299C64.6508 113.275 67.3962 114.345 69.5599 116.29C70.1374 116.81 70.9963 115.956 70.4153 115.435C68.0171 113.279 64.9056 112.013 61.7157 113.055C60.3164 113.512 58.8954 114.337 57.8937 115.435C57.3694 116.009 58.2227 116.867 58.7491 116.29Z" fill="white"/>
<path opacity="0.1" d="M85.9244 116.756V97.7576C85.9244 95.4763 84.0575 93.6094 81.7762 93.6094H78.2265C78.8425 95.8662 79.1736 98.2056 79.1736 100.607C79.1736 110.698 73.4399 119.735 64.3945 125.848H78.1516H81.7762H95.9169L85.9244 116.756Z" fill="#0046A0"/>
<path d="M205.587 223.165C194.483 234.269 194.483 252.275 205.587 263.38C216.692 274.484 234.698 274.484 245.802 263.38C256.907 252.275 256.907 234.269 245.802 223.165C234.697 212.06 216.692 212.06 205.587 223.165ZM242.542 260.12C233.238 269.425 218.152 269.425 208.847 260.12C199.543 250.815 199.543 235.73 208.847 226.425C218.152 217.12 233.238 217.12 242.542 226.425C251.847 235.73 251.847 250.815 242.542 260.12Z" fill="#EB725F"/>
<path opacity="0.3" d="M225.695 267.097C238.854 267.097 249.521 256.43 249.521 243.271C249.521 230.113 238.854 219.445 225.695 219.445C212.536 219.445 201.869 230.113 201.869 243.271C201.869 256.43 212.536 267.097 225.695 267.097Z" fill="white"/>
<path d="M245.035 259.052L241.47 262.617L273.712 294.86L277.277 291.295L245.035 259.052Z" fill="#6E7FDD"/>
<path d="M245.034 259.052L241.47 262.617L253.344 274.492L256.909 270.927L245.034 259.052Z" fill="#EB725F"/>
<path d="M211.823 233.473C212.727 230.866 214.708 228.757 217.091 227.292C219.489 225.838 222.337 225.058 225.185 225.059C228.033 225.052 230.883 225.83 233.282 227.285C235.666 228.748 237.647 230.861 238.547 233.473C235.941 232.593 233.738 231.897 231.549 231.471C229.379 231.031 227.284 230.829 225.184 230.819C223.085 230.822 220.988 231.023 218.816 231.464C216.627 231.889 214.423 232.589 211.823 233.473Z" fill="white"/>
</g>
<defs>
<clipPath id="clip0_474_2">
<rect width="350" height="350" fill="white"/>
</clipPath>
</defs>
</svg>
